<svg xmlns="http://www.w3.org/2000/svg" height="401pt" version="1.1" viewBox="0 -17 401.78554 401" width="401pt">
<g id="surface1">
<path d="M 45.023438 156.371094 L 356.964844 156.371094 L 390.871094 353.03125 L 11.117188 353.03125 Z M 45.023438 156.371094 " style=" stroke:none;fill-rule:nonzero;fill:rgb(74.117647%,73.72549%,75.686275%);fill-opacity:1;" />
<path d="M 268.808594 251.3125 C 268.808594 240.078125 238.445312 230.96875 200.992188 230.96875 C 163.542969 230.96875 133.179688 240.078125 133.179688 251.3125 C 133.179688 262.546875 163.542969 271.65625 200.992188 271.65625 C 238.445312 271.65625 268.808594 262.546875 268.808594 251.3125 Z M 268.808594 251.3125 " style=" stroke:none;fill-rule:nonzero;fill:rgb(87.843137%,20%,32.156863%);fill-opacity:1;" />
<path d="M 282.371094 88.558594 C 282.371094 43.617188 245.9375 7.183594 200.996094 7.183594 C 156.050781 7.183594 119.617188 43.617188 119.617188 88.558594 C 119.617188 133.5 200.996094 224.1875 200.996094 224.1875 C 200.996094 224.1875 282.371094 133.5 282.371094 88.558594 Z M 160.304688 88.558594 C 160.304688 66.089844 178.523438 47.871094 200.996094 47.871094 C 223.46875 47.871094 241.683594 66.089844 241.683594 88.558594 C 241.683594 111.03125 223.46875 129.25 200.996094 129.25 C 178.523438 129.25 160.304688 111.03125 160.304688 88.558594 Z M 160.304688 88.558594 " style=" stroke:none;fill-rule:nonzero;fill:rgb(20%,54.117647%,95.294118%);fill-opacity:1;" />
<path d="M 241.683594 88.558594 C 241.683594 111.03125 223.464844 129.25 200.992188 129.25 C 178.523438 129.25 160.304688 111.03125 160.304688 88.558594 C 160.304688 66.089844 178.523438 47.871094 200.992188 47.871094 C 223.464844 47.871094 241.683594 66.089844 241.683594 88.558594 Z M 241.683594 88.558594 " style=" stroke:none;fill-rule:nonzero;fill:rgb(87.843137%,20%,32.156863%);fill-opacity:1;" />
<path d="M 401.722656 342.910156 L 372.339844 166.59375 C 370.726562 156.765625 362.21875 149.5625 352.257812 149.59375 L 275.589844 149.59375 L 275.589844 163.15625 L 352.257812 163.15625 C 355.574219 163.15625 358.402344 165.554688 358.945312 168.824219 L 388.328125 345.140625 C 388.945312 348.835938 386.445312 352.328125 382.753906 352.941406 C 382.386719 353.003906 382.015625 353.035156 381.644531 353.035156 L 20.34375 353.035156 C 16.601562 353.03125 13.566406 349.996094 13.566406 346.25 C 13.566406 345.878906 13.597656 345.507812 13.660156 345.140625 L 43.042969 168.824219 C 43.585938 165.554688 46.414062 163.15625 49.730469 163.15625 L 126.398438 163.15625 L 126.398438 149.589844 L 49.730469 149.589844 C 39.773438 149.566406 31.273438 156.769531 29.664062 166.59375 L 0.28125 342.910156 C -1.566406 353.992188 5.921875 364.472656 17.003906 366.320312 C 18.109375 366.503906 19.226562 366.59375 20.34375 366.59375 L 381.644531 366.59375 C 392.878906 366.601562 401.992188 357.5 402 346.261719 C 402 345.140625 401.90625 344.015625 401.722656 342.910156 Z M 401.722656 342.910156 " style=" stroke:none;fill-rule:nonzero;fill:rgb(13.72549%,12.156863%,12.54902%);fill-opacity:1;" />
<path d="M 200.992188 230.96875 C 202.917969 230.96875 204.753906 230.148438 206.039062 228.71875 C 209.4375 224.933594 289.152344 135.5625 289.152344 88.558594 C 289.152344 39.871094 249.683594 0.402344 200.992188 0.402344 C 152.304688 0.402344 112.835938 39.871094 112.835938 88.558594 C 112.835938 135.5625 192.550781 224.933594 195.949219 228.71875 C 197.234375 230.148438 199.070312 230.96875 200.992188 230.96875 Z M 200.992188 13.964844 C 242.171875 14.011719 275.539062 47.382812 275.589844 88.558594 C 275.589844 120.886719 225.738281 185.269531 200.992188 213.921875 C 176.25 185.277344 126.398438 120.90625 126.398438 88.558594 C 126.449219 47.382812 159.816406 14.011719 200.992188 13.964844 Z M 200.992188 13.964844 " style=" stroke:none;fill-rule:nonzero;fill:rgb(13.72549%,12.156863%,12.54902%);fill-opacity:1;" />
<path d="M 248.464844 88.558594 C 248.464844 62.34375 227.210938 41.089844 200.996094 41.089844 C 174.777344 41.089844 153.527344 62.34375 153.527344 88.558594 C 153.527344 114.777344 174.777344 136.027344 200.996094 136.027344 C 227.199219 136 248.433594 114.765625 248.464844 88.558594 Z M 167.085938 88.558594 C 167.085938 69.835938 182.269531 54.652344 200.992188 54.652344 C 219.71875 54.652344 234.902344 69.835938 234.902344 88.558594 C 234.902344 107.285156 219.71875 122.46875 200.992188 122.46875 C 182.277344 122.445312 167.109375 107.277344 167.085938 88.558594 Z M 167.085938 88.558594 " style=" stroke:none;fill-rule:nonzero;fill:rgb(13.72549%,12.156863%,12.54902%);fill-opacity:1;" />
<path d="M 187.433594 244.53125 L 214.558594 244.53125 L 214.558594 258.09375 L 187.433594 258.09375 Z M 187.433594 244.53125 " style=" stroke:none;fill-rule:nonzero;fill:rgb(13.72549%,12.156863%,12.54902%);fill-opacity:1;" />
<path d="M 167.085938 244.53125 L 180.648438 244.53125 L 180.648438 258.09375 L 167.085938 258.09375 Z M 167.085938 244.53125 " style=" stroke:none;fill-rule:nonzero;fill:rgb(13.72549%,12.156863%,12.54902%);fill-opacity:1;" />
<path d="M 221.339844 244.53125 L 234.902344 244.53125 L 234.902344 258.09375 L 221.339844 258.09375 Z M 221.339844 244.53125 " style=" stroke:none;fill-rule:nonzero;fill:rgb(13.72549%,12.156863%,12.54902%);fill-opacity:1;" />
</g>
</svg>